<?xml version="1.0" encoding="utf-8"?>
<!-- Generator: Adobe Illustrator 24.0.1, SVG Export Plug-In . SVG Version: 6.00 Build 0)  -->
<svg version="1.1" id="Icons" xmlns="http://www.w3.org/2000/svg" xmlns:xlink="http://www.w3.org/1999/xlink" x="0px" y="0px"
	 viewBox="0 0 512 512" style="enable-background:new 0 0 512 512;" xml:space="preserve">
<style type="text/css">
	.st0{fill:#7510F7;}
</style>
<path class="st0" d="M463.6,498.2H48.4c-19.1,0-34.6-15.5-34.6-34.6V48.4c0-19.1,15.5-34.6,34.6-34.6h415.1
	c19.1,0,34.6,15.5,34.6,34.6v197.3c0,3.8-3.1,6.9-6.9,6.9s-6.9-3.1-6.9-6.9V48.4c0-11.5-9.3-20.8-20.8-20.8H48.4
	C37,27.7,27.7,37,27.7,48.4v415.1c0,11.5,9.3,20.8,20.8,20.8h415.1c11.5,0,20.8-9.3,20.8-20.8V363.1c0-3.8,3.1-6.9,6.9-6.9
	s6.9,3.1,6.9,6.9v100.5C498.1,482.7,482.7,498.1,463.6,498.2z"/>
<path class="st0" d="M491.2,321.6c-3.8,0-6.9-3.1-6.9-6.9v-20.5c0-3.8,3.1-6.9,6.9-6.9s6.9,3.1,6.9,6.9v20.5
	C498.2,318.5,495.1,321.6,491.2,321.6z"/>
<path class="st0" d="M230.9,304.4H20.8c-3.8,0-6.9-3.1-6.9-6.9s3.1-6.9,6.9-6.9h210.2c10,0,18.1-8.1,18.2-18.2v-87
	c0-17.7,14.3-32,32-32h67.5c10,0,18.1-8.1,18.2-18.2V20.8c0-3.8,3.1-6.9,6.9-6.9c3.8,0,6.9,3.1,6.9,6.9v114.6c0,17.7-14.3,32-32,32
	h-67.5c-10,0-18.2,8.1-18.2,18.2v87C262.9,290.1,248.6,304.4,230.9,304.4z"/>
<path class="st0" d="M179.9,145.3h-55.4c-3.8,0-6.9-3.1-6.9-6.9c0-3.8,3.1-6.9,6.9-6.9H173V20.8c0-3.8,3.1-6.9,6.9-6.9
	s6.9,3.1,6.9,6.9v117.6C186.8,142.2,183.7,145.3,179.9,145.3z"/>
<path class="st0" d="M100.3,169.5c-17.2,0-31.1-13.9-31.1-31.1s13.9-31.1,31.1-31.1s31.1,13.9,31.1,31.1
	C131.4,155.6,117.5,169.5,100.3,169.5z M100.3,121.1c-9.6,0-17.3,7.7-17.3,17.3s7.7,17.3,17.3,17.3s17.3-7.7,17.3-17.3
	S109.9,121.1,100.3,121.1z"/>
<path class="st0" d="M351.6,276.8c-3.8,0-6.9-3.1-6.9-6.9v-55.4c0-3.8,3.1-6.9,6.9-6.9h138.8c3.8,0,6.9,3.1,6.9,6.9
	s-3.1,6.9-6.9,6.9H358.5v48.4C358.5,273.7,355.4,276.8,351.6,276.8z"/>
<path class="st0" d="M351.6,325.2c-17.2,0-31.1-13.9-31.1-31.1c0-17.2,13.9-31.1,31.1-31.1s31.1,13.9,31.1,31.1
	C382.7,311.2,368.8,325.2,351.6,325.2z M351.6,276.8c-9.6,0-17.3,7.7-17.3,17.3c0,9.6,7.7,17.3,17.3,17.3c9.6,0,17.3-7.7,17.3-17.3
	C368.9,284.5,361.1,276.8,351.6,276.8z"/>
<path class="st0" d="M138.4,235.2H20.8c-3.8,0-6.9-3.1-6.9-6.9s3.1-6.9,6.9-6.9h117.6c3.8,0,6.9,3.1,6.9,6.9
	S142.2,235.2,138.4,235.2z"/>
<path class="st0" d="M166.1,262.9c-19.1,0-34.6-15.5-34.6-34.6s15.5-34.6,34.6-34.6s34.6,15.5,34.6,34.6
	C200.6,247.4,185.2,262.9,166.1,262.9z M166.1,207.6c-11.5,0-20.8,9.3-20.8,20.8s9.3,20.8,20.8,20.8c11.5,0,20.8-9.3,20.8-20.8
	S177.5,207.6,166.1,207.6z"/>
<path class="st0" d="M491.2,413.6H373.6c-3.8,0-6.9-3.1-6.9-6.9c0-3.8,3.1-6.9,6.9-6.9h117.6c3.8,0,6.9,3.1,6.9,6.9
	C498.2,410.5,495.1,413.6,491.2,413.6z"/>
<path class="st0" d="M345.9,441.3c-19.1,0-34.6-15.5-34.6-34.6s15.5-34.6,34.6-34.6s34.6,15.5,34.6,34.6
	C380.5,425.8,365,441.3,345.9,441.3z M345.9,385.9c-11.5,0-20.8,9.3-20.8,20.8s9.3,20.8,20.8,20.8s20.8-9.3,20.8-20.8
	S357.4,385.9,345.9,385.9z"/>
<path class="st0" d="M103.8,498.2c-3.8,0-6.9-3.1-6.9-6.9v-61.9c0-3.8,3.1-6.9,6.9-6.9c3.8,0,6.9,3.1,6.9,6.9v61.9
	C110.7,495.1,107.6,498.2,103.8,498.2z"/>
<path class="st0" d="M103.8,436.3c-16.4,0-29.6-13.3-29.6-29.6s13.3-29.6,29.6-29.6s29.6,13.3,29.6,29.6l0,0
	C133.4,423,120.1,436.3,103.8,436.3z M103.8,390.9c-8.7,0-15.8,7.1-15.8,15.8c0,8.7,7.1,15.8,15.8,15.8s15.8-7.1,15.8-15.8l0,0
	C119.6,398,112.5,390.9,103.8,390.9z"/>
<path class="st0" d="M200.6,498.2c-3.8,0-6.9-3.1-6.9-6.9V382.7c0-3.8,3.1-6.9,6.9-6.9s6.9,3.1,6.9,6.9v108.6
	C207.6,495.1,204.5,498.2,200.6,498.2z"/>
<path class="st0" d="M200.6,389.6c-16.4,0-29.6-13.3-29.6-29.6c0-16.4,13.3-29.6,29.6-29.6s29.6,13.3,29.6,29.6c0,0,0,0,0,0
	C230.2,376.3,217,389.6,200.6,389.6L200.6,389.6z M200.6,344.2c-8.7,0-15.8,7.1-15.8,15.8s7.1,15.8,15.8,15.8
	c8.7,0,15.8-7.1,15.8-15.8l0,0C216.4,351.3,209.4,344.2,200.6,344.2z"/>
</svg>
